<mxfile host="Electron" modified="2024-02-19T20:35:26.312Z" agent="Mozilla/5.0 (Windows NT 10.0; Win64; x64) AppleWebKit/537.36 (KHTML, like Gecko) draw.io/23.1.5 Chrome/120.0.6099.109 Electron/28.1.0 Safari/537.36" etag="4KELGCwVUHl_A1KDsGp2" version="23.1.5" type="device">
  <diagram name="Page-1" id="u0XEVq04qdEN7g_LPaCo">
    <mxGraphModel dx="989" dy="577" grid="1" gridSize="10" guides="1" tooltips="1" connect="1" arrows="1" fold="1" page="1" pageScale="1" pageWidth="850" pageHeight="1100" math="1" shadow="0">
      <root>
        <mxCell id="0" />
        <mxCell id="1" parent="0" />
        <mxCell id="7rltvQfId2yCLwZndJaO-114" value="" style="rounded=0;whiteSpace=wrap;html=1;strokeColor=none;" parent="1" vertex="1">
          <mxGeometry x="100" y="90" width="570" height="370" as="geometry" />
        </mxCell>
        <mxCell id="_1bkBuvPynDHMoi8xW-0-37" style="edgeStyle=orthogonalEdgeStyle;rounded=0;orthogonalLoop=1;jettySize=auto;html=1;" parent="1" source="7rltvQfId2yCLwZndJaO-85" target="_1bkBuvPynDHMoi8xW-0-31" edge="1">
          <mxGeometry relative="1" as="geometry" />
        </mxCell>
        <mxCell id="7rltvQfId2yCLwZndJaO-85" value="&lt;b&gt;&lt;font style=&quot;font-size: 20px;&quot; face=&quot;Times New Roman&quot;&gt;Policy Based&lt;/font&gt;&lt;/b&gt;" style="rounded=0;whiteSpace=wrap;html=1;verticalAlign=top;" parent="1" vertex="1">
          <mxGeometry x="110.5" y="100" width="230" height="165" as="geometry" />
        </mxCell>
        <mxCell id="7rltvQfId2yCLwZndJaO-86" value="REINFORCE" style="rounded=1;whiteSpace=wrap;html=1;fillColor=#F7F9FC;strokeColor=#6c8ebf;horizontal=1;verticalAlign=top;dashed=1;fontFamily=Courier New;fontStyle=0" parent="1" vertex="1">
          <mxGeometry x="120.5" y="140" width="210" height="25" as="geometry" />
        </mxCell>
        <mxCell id="_1bkBuvPynDHMoi8xW-0-6" value="TRPO" style="rounded=1;whiteSpace=wrap;html=1;fillColor=#F7F9FC;strokeColor=#6c8ebf;horizontal=1;verticalAlign=top;dashed=1;fontFamily=Courier New;fontStyle=0" parent="1" vertex="1">
          <mxGeometry x="119.5" y="175" width="210" height="25" as="geometry" />
        </mxCell>
        <mxCell id="_1bkBuvPynDHMoi8xW-0-7" value="PPO" style="rounded=1;whiteSpace=wrap;html=1;fillColor=#F7F9FC;strokeColor=#6c8ebf;horizontal=1;verticalAlign=top;dashed=1;fontFamily=Courier New;fontStyle=0" parent="1" vertex="1">
          <mxGeometry x="119.5" y="215" width="210" height="25" as="geometry" />
        </mxCell>
        <mxCell id="_1bkBuvPynDHMoi8xW-0-36" style="edgeStyle=orthogonalEdgeStyle;rounded=0;orthogonalLoop=1;jettySize=auto;html=1;" parent="1" source="_1bkBuvPynDHMoi8xW-0-26" target="_1bkBuvPynDHMoi8xW-0-31" edge="1">
          <mxGeometry relative="1" as="geometry" />
        </mxCell>
        <mxCell id="_1bkBuvPynDHMoi8xW-0-26" value="&lt;b&gt;&lt;font style=&quot;font-size: 20px;&quot; face=&quot;Times New Roman&quot;&gt;Value Based&lt;/font&gt;&lt;/b&gt;" style="rounded=0;whiteSpace=wrap;html=1;verticalAlign=top;" parent="1" vertex="1">
          <mxGeometry x="110" y="280" width="230" height="165" as="geometry" />
        </mxCell>
        <mxCell id="_1bkBuvPynDHMoi8xW-0-27" value="DQN" style="rounded=1;whiteSpace=wrap;html=1;fillColor=#F7F9FC;strokeColor=#6c8ebf;horizontal=1;verticalAlign=top;dashed=1;fontFamily=Courier New;fontStyle=0" parent="1" vertex="1">
          <mxGeometry x="120" y="320" width="210" height="25" as="geometry" />
        </mxCell>
        <mxCell id="_1bkBuvPynDHMoi8xW-0-29" value="..." style="rounded=1;whiteSpace=wrap;html=1;fillColor=#F7F9FC;strokeColor=#6c8ebf;horizontal=1;verticalAlign=top;dashed=1;fontFamily=Courier New;fontStyle=0" parent="1" vertex="1">
          <mxGeometry x="119" y="355" width="210" height="25" as="geometry" />
        </mxCell>
        <mxCell id="_1bkBuvPynDHMoi8xW-0-30" value="Rainbow DQN" style="rounded=1;whiteSpace=wrap;html=1;fillColor=#F7F9FC;strokeColor=#6c8ebf;horizontal=1;verticalAlign=top;dashed=1;fontFamily=Courier New;fontStyle=0" parent="1" vertex="1">
          <mxGeometry x="119" y="395" width="210" height="25" as="geometry" />
        </mxCell>
        <mxCell id="_1bkBuvPynDHMoi8xW-0-31" value="&lt;b&gt;&lt;font style=&quot;font-size: 20px;&quot; face=&quot;Times New Roman&quot;&gt;Actor Critic Methods&lt;/font&gt;&lt;/b&gt;" style="rounded=0;whiteSpace=wrap;html=1;verticalAlign=top;" parent="1" vertex="1">
          <mxGeometry x="430" y="100" width="230" height="340" as="geometry" />
        </mxCell>
        <mxCell id="_1bkBuvPynDHMoi8xW-0-32" value="DDPG" style="rounded=1;whiteSpace=wrap;html=1;fillColor=#F7F9FC;strokeColor=#6c8ebf;horizontal=1;verticalAlign=top;dashed=1;fontFamily=Courier New;fontStyle=0" parent="1" vertex="1">
          <mxGeometry x="440.5" y="160" width="210" height="25" as="geometry" />
        </mxCell>
        <mxCell id="_1bkBuvPynDHMoi8xW-0-33" value="SAC" style="rounded=1;whiteSpace=wrap;html=1;fillColor=#F7F9FC;strokeColor=#6c8ebf;horizontal=1;verticalAlign=top;dashed=1;fontFamily=Courier New;fontStyle=0" parent="1" vertex="1">
          <mxGeometry x="440" y="205" width="210" height="25" as="geometry" />
        </mxCell>
        <mxCell id="_1bkBuvPynDHMoi8xW-0-34" value="TD3" style="rounded=1;whiteSpace=wrap;html=1;fillColor=#F7F9FC;strokeColor=#6c8ebf;horizontal=1;verticalAlign=top;dashed=1;fontFamily=Courier New;fontStyle=0" parent="1" vertex="1">
          <mxGeometry x="440" y="252.5" width="210" height="25" as="geometry" />
        </mxCell>
        <mxCell id="_1bkBuvPynDHMoi8xW-0-35" value="..." style="rounded=1;whiteSpace=wrap;html=1;fillColor=#F7F9FC;strokeColor=#6c8ebf;horizontal=1;verticalAlign=top;dashed=1;fontFamily=Courier New;fontStyle=0" parent="1" vertex="1">
          <mxGeometry x="440" y="300" width="210" height="25" as="geometry" />
        </mxCell>
      </root>
    </mxGraphModel>
  </diagram>
</mxfile>
